<svg xmlns="http://www.w3.org/2000/svg" viewBox="0 0 460.23 264.79"><defs><style>.cls-1{font-size:12px;fill:#7c7879;font-family:CourierNewPSMT, Courier New;letter-spacing:0.25em;}.cls-2{opacity:0.95;}.cls-3{fill:#b6b5cd;}.cls-3,.cls-4,.cls-5,.cls-6{opacity:0.72;}.cls-4{fill:#a2a1bf;}.cls-5{fill:#908fb3;}.cls-6{fill:#85859c;}.cls-7{fill:#5a585a;}</style></defs><title>attrAsset 1</title><g id="Layer_2" data-name="Layer 2"><g id="Layer_1-2" data-name="Layer 1"><text class="cls-1" transform="translate(29.8 256.63)">LET EACH CELEBRATION BE SPECIAL</text><g class="cls-2"><polygon class="cls-3" points="330.28 129.16 327.1 58.88 372.01 0 375.19 70.28 330.28 129.16"/><polygon class="cls-4" points="323.4 146.88 320.22 76.6 365.13 17.72 368.32 88 323.4 146.88"/><polygon class="cls-5" points="316.53 164.6 313.34 94.32 358.25 35.44 361.44 105.72 316.53 164.6"/><polygon class="cls-6" points="309.65 182.32 306.47 112.04 351.38 53.16 354.56 123.44 309.65 182.32"/></g><g class="cls-2"><polygon class="cls-3" points="352.06 145.15 419.46 124.97 460.23 63.16 392.83 83.33 352.06 145.15"/><polygon class="cls-4" points="337.6 157.48 405 137.31 445.77 75.49 378.37 95.67 337.6 157.48"/><polygon class="cls-5" points="323.14 169.82 390.54 149.65 431.31 87.83 363.91 108 323.14 169.82"/><polygon class="cls-6" points="308.68 182.16 376.08 161.98 416.85 100.17 349.45 120.34 308.68 182.16"/></g><path class="cls-7" d="M11.13,122.62a8.76,8.76,0,0,0-1-2.06c-.53-.85-1.2-1.94-2-3.26s-1.47-2.15-1.87-2.82a3.59,3.59,0,0,1-.6-1.4q0-1.53,3.54-5.06t5.18-3.52a6.4,6.4,0,0,1,1.75,1h1.65c1,.51,2,1,3,1.43s2.06.89,3,1.37q4.44,2,5.54,3.26a16.94,16.94,0,0,0,3.51,2.76,17.19,17.19,0,0,0,1.32,1.46c.66.67,1.55,1.52,2.68,2.54a2.92,2.92,0,0,1,.55.61l.72.93q2.36,2.79,4,5.15a23.5,23.5,0,0,1,2.44,4.38,25.47,25.47,0,0,1,1.57,5.26,33.85,33.85,0,0,1,.52,6.08A27.94,27.94,0,0,1,45,151a12.05,12.05,0,0,1-5.1,6.19,8.09,8.09,0,0,1-.93.63,14,14,0,0,0-1.21.8l-.71.71a11.88,11.88,0,0,1-3.1,2.22,52,52,0,0,1-5.67,2.54q-4.66,1.81-9.82,3.95c-.95.47-1.76.86-2.44,1.15a4.45,4.45,0,0,1-1.56.44,4.63,4.63,0,0,0-1.92.22c-.22.14-.42,1.61-.61,4.39-.11,1.8-.22,3.56-.32,5.28a5.35,5.35,0,0,0,.57,2.17A12.31,12.31,0,0,0,14,184.31a20,20,0,0,1-1.12,2.15,24.56,24.56,0,0,1-1.56,2.26,8.39,8.39,0,0,1-2,2.22,3.46,3.46,0,0,1-2,.75,2.81,2.81,0,0,1-2.66-1.92A16.35,16.35,0,0,1,4.17,181c.25-1.22.64-2.73,1.15-4.53L5,173.24c-.47-.22-.94-.46-1.39-.71s-.91-.54-1.35-.83a3.52,3.52,0,0,1-1.4-1,1.83,1.83,0,0,1-.41-1.09c0-.44.89-1.09,2.66-2s2.66-2,2.66-3.43a9.27,9.27,0,0,0-.24-1.75,8.77,8.77,0,0,1-.25-1.7c.33-2.12.69-4.26,1.1-6.42a15,15,0,0,0,.27-2c.11-1.1.26-2.67.44-4.72.11-.62.27-1.41.49-2.36s.46-2,.71-3.29l-.38-2Zm4.5-6.53a.58.58,0,0,0-.47.17.75.75,0,0,0-.13.49q6.47,6.75,6.47,10a70.07,70.07,0,0,1-2.12,8.52,80.73,80.73,0,0,1-2.87,9.12l.43,2.31q-1.47,5.53-2.22,9.5a36.87,36.87,0,0,0-.74,6.34,1.29,1.29,0,0,0,.25.87.88.88,0,0,0,.69.28,7.46,7.46,0,0,0,2-.5,26.27,26.27,0,0,0,3.67-1.7c1-.51,1.9-1,2.86-1.42l2.9-1.37c.4-.22.87-.5,1.4-.85s1.11-.76,1.73-1.23c.87-.66,1.57-1.2,2.08-1.62s.84-.69,1-.8a10.57,10.57,0,0,0,3.56-4.11,13.12,13.12,0,0,0,1.21-5.86,18.85,18.85,0,0,0-.47-4.11,24.24,24.24,0,0,0-1.4-4.28l-.11-1.31a2.83,2.83,0,0,0-.38-.63l-.6-.8a7.23,7.23,0,0,1-.72-.87,6.79,6.79,0,0,1-.71-1.43,21,21,0,0,0-3.18-4.22,70,70,0,0,0-6.14-5.81q-.43-.37-1-.9c-.36-.35-.76-.72-1.2-1.13-.7-.32-1.52-.7-2.47-1.12S16.87,116.68,15.63,116.09Z" transform="translate(-0.49)"/><path class="cls-7" d="M48.09,164.1a5.48,5.48,0,0,1-.19-1q0-.39,0-.66a9.73,9.73,0,0,1,.44-3.1,5.73,5.73,0,0,1,1.32-2.17,5.3,5.3,0,0,1,1.13-.65c.6-.3,1.39-.64,2.38-1a5.45,5.45,0,0,0,1.68-1.18,2.59,2.59,0,0,0,.68-1.68,7.6,7.6,0,0,1,.66-1.75c.33-.66.71-1.37,1.15-2.14A32.41,32.41,0,0,0,58.63,145q1.09-3.47,3.07-10.15c.37-1.35.74-2.52,1.1-3.51s.68-1.83.93-2.52a26.34,26.34,0,0,1,2.89-6.11,25.12,25.12,0,0,0,1.67-2.39V120l-1.7-2.69,2.14-2.47,2.74-.55c.55-.07,1-.58,1.51-1.53a12.1,12.1,0,0,1,2.39-3.13A5.18,5.18,0,0,0,76.6,109c.57-.39,1.29-.93,2.17-1.62a13.07,13.07,0,0,1,2-1.37,3,3,0,0,1,1.26-.44,3.12,3.12,0,0,1,2.13.6,2,2,0,0,1,.66,1.59,8.31,8.31,0,0,1-1.26,3.51,8.26,8.26,0,0,0-1.26,3.51,1.52,1.52,0,0,0,.25.9,1.15,1.15,0,0,0,.57.47l6.57,3.56c.36.14.69.72,1,1.72a24.83,24.83,0,0,1,.71,4.14c.22,1.46.4,2.68.52,3.65a18.51,18.51,0,0,1,.2,2.33c-.26,1.57-.51,3.16-.77,4.76.36,2.05.77,4.21,1.2,6.47-.22,2.16-.45,4.35-.71,6.58a1.15,1.15,0,0,0,.14.57.55.55,0,0,0,.41.3,2.18,2.18,0,0,1,1.39.5,1.57,1.57,0,0,1,.47,1.2,3.45,3.45,0,0,1-.3,1.57,2.23,2.23,0,0,1-.85.9,12.83,12.83,0,0,0-1.12.77,3.37,3.37,0,0,0-.57.55l.71,3.4-1,7.8a24.33,24.33,0,0,1-.16,2.52c-.11,1-.28,2.21-.49,3.57-.37,1-.64,1.81-.82,2.47a5.84,5.84,0,0,0-.28,1.31c.18.63.35,1.28.5,2-.22,1-.45,2-.69,3s-.46,2-.68,2.91a6.37,6.37,0,0,1-1.59,2.83,3.28,3.28,0,0,1-2.29.9,1.14,1.14,0,0,1-1.07-.63,3.91,3.91,0,0,1-.36-1.89,9.17,9.17,0,0,1,.19-1.59,9.39,9.39,0,0,0,.19-1.59,6,6,0,0,0-.11-1,7.48,7.48,0,0,1-.11-1.15c0-1,.1-2.66.31-4.91s.3-3.94.3-5.07c-.19-.63-.37-1.27-.55-1.93a20.64,20.64,0,0,0,.22-2.11,11.86,11.86,0,0,0-.06-2l.83-1.48-.72-5.1-.38-.17a2.81,2.81,0,0,0-1,.25,12.06,12.06,0,0,0-1.57.79,14.37,14.37,0,0,1-2,.47,24.27,24.27,0,0,1-3.71.3c-.66.33-1.28.62-1.86.88a25.36,25.36,0,0,0-3.19,1Q68,162,65.49,163a24.14,24.14,0,0,1-2.72,1.13,6.88,6.88,0,0,1-2.06.41,1.42,1.42,0,0,0-1.1.49,3.74,3.74,0,0,0-.71,1.43,13.08,13.08,0,0,1-.79,2.41c-.43,1-1,2.31-1.68,3.84-.15.41-.35,1-.6,1.87s-.55,1.88-.88,3.13c-.22.47-.48,1.07-.77,1.78s-.62,1.54-1,2.5a11.84,11.84,0,0,1-.13,1.61c-.1.65-.23,1.39-.41,2.23q-.28.77-.75,2c-.31.78-.7,1.65-1.18,2.6a2.72,2.72,0,0,1-1.26,1.29,4.86,4.86,0,0,1-2.14.41,1.78,1.78,0,0,1-1.45-.63,3,3,0,0,1-.52-1.95,18.72,18.72,0,0,1,.33-3.26,31.65,31.65,0,0,1,1-4q.77-2.91,1.32-4.72a12.4,12.4,0,0,0,.6-2.68c.11-.26.28-.72.5-1.37s.47-1.46.76-2.42.64-1.95.94-3.12l-.28-.44-1.75.27a1.06,1.06,0,0,1-.88-.49,2.17,2.17,0,0,1-.28-1.15,3.89,3.89,0,0,1,.11-.85C47.84,164.92,48,164.54,48.09,164.1ZM68,154a16.93,16.93,0,0,0,3.73-.61,17.46,17.46,0,0,1,3.73-.61c.51.12,1,.21,1.53.28.92-.18,1.81-.39,2.69-.63s1.78-.45,2.69-.64a1.42,1.42,0,0,0,.82-.41,1.09,1.09,0,0,0,.28-.79c-.08-1.1-.11-1.85-.11-2.25a20.09,20.09,0,0,1,.14-2.33,26.48,26.48,0,0,1,.41-2.66l-.66-2.47.22-2.25c-.15-.8-.27-1.56-.36-2.27a6.81,6.81,0,0,1,0-1.79l-.38-.71c-.18-.33-.38-.68-.6-1-.37-.62-.74-1.22-1.13-1.78s-.76-1.15-1.12-1.73a5.5,5.5,0,0,0-1.65-1.54,3.73,3.73,0,0,0-1.81-.49c-.73,0-1.48.59-2.25,1.76A19.56,19.56,0,0,0,72,134.35a18.45,18.45,0,0,1-.9,1.81c-.5.92-1.2,2.11-2.11,3.57a20,20,0,0,1-1.48,5.18A75.54,75.54,0,0,1,64,152.18a1.33,1.33,0,0,0-.3.66,5.66,5.66,0,0,0,0,.61.8.8,0,0,0,.19.58.82.82,0,0,0,.58.19c.36,0,1,0,1.78-.11S67.65,154,68,154Z" transform="translate(-0.49)"/><path class="cls-7" d="M118.23,154.71a5.25,5.25,0,0,0,1.56,2.93,43.63,43.63,0,0,0,4.69,4.53q2,1.7,4.19,3.32c1.45,1.08,2.88,2.17,4.31,3.26l2.41,2,3.46,2.88c1,.73,1.94,1.46,3,2.19s2.17,1.46,3.38,2.2c.8.62,1.7,1.29,2.68,2s2.12,1.51,3.4,2.36a4.24,4.24,0,0,1,1.7,2.38,15.66,15.66,0,0,1,.72,4.47l-.5,1.43-.54.27a3.41,3.41,0,0,1-1.46-.46c-.6-.31-1.36-.76-2.27-1.35-.19-.11-1-.51-2.5-1.2s-3.61-1.69-6.39-3a29.41,29.41,0,0,1-4.22-2.22,30.18,30.18,0,0,1-3.51-2.61,25,25,0,0,0-2.38-1.81c-1-.66-2.12-1.37-3.43-2.14S124,174.71,123,174s-1.78-1.29-2.36-1.76q-3-2.41-4.83-3.68a6.16,6.16,0,0,0-2.57-1.26,3.06,3.06,0,0,0-.61,1.59c-.43,1.72-.9,3.89-1.39,6.51s-1,5.66-1.62,9.14a2.45,2.45,0,0,1-.33,1.4,1.13,1.13,0,0,1-1,.46,4.54,4.54,0,0,1-3.23-1,4.1,4.1,0,0,1-1.1-3.13,50.59,50.59,0,0,1,.36-5.87,52.51,52.51,0,0,1,1.18-6.48c.18-1,.32-1.87.41-2.66a19.17,19.17,0,0,0,.13-2.17,5.5,5.5,0,0,0-2.16-4.34c-1.45-1.2-2.17-2.06-2.17-2.58a5.63,5.63,0,0,1,.36-2.1,3.32,3.32,0,0,1,1.07-1.46c1.2-.77,2.32-1.5,3.34-2.19a1.12,1.12,0,0,0,.52-.74,6,6,0,0,0,.14-1.45v-2.36q.16-4.87.27-10.14v-1.2c0-.55,0-1.26-.11-2.14a10.51,10.51,0,0,1,0-1.84c0-.56,0-1.08,0-1.56-.21-.73-.41-1.36-.57-1.89a4.92,4.92,0,0,1-.25-1.51c0-.44,0-1.12.11-2s.11-1.6.11-2a20.4,20.4,0,0,0-.14-2.14c-.09-.91-.13-1.61-.13-2.08a8.35,8.35,0,0,1,.9-3.78,13.09,13.09,0,0,1,2.77-3.57,14.5,14.5,0,0,1,3.7-2.33,9.89,9.89,0,0,1,3.87-.79c.62,0,1.54,0,2.77.14s2.18.13,2.88.13a18,18,0,0,1,3.89,1.21,20.58,20.58,0,0,1,2.25.3,11.9,11.9,0,0,1,1.59.41l2.14,1a6,6,0,0,0,1.09.41c.63.22,1.16.4,1.62.54a4,4,0,0,1,1.13.55l1.67.77,2.17,1a23.83,23.83,0,0,1,3.7,2.3,32.76,32.76,0,0,1,3.26,2.85,16.05,16.05,0,0,1,2.63,3.86,8.82,8.82,0,0,1,.88,3.76c0,.36,0,.88-.08,1.56s-.16,1.44-.31,2.28a6.61,6.61,0,0,1-1.64,3.42,26.24,26.24,0,0,1-4.28,4,47.88,47.88,0,0,1-4.6,3.21,17.67,17.67,0,0,1-3.95,1.83,6.16,6.16,0,0,0-1.1.93,11.6,11.6,0,0,1-2.3,1.54q-1.76,1-4.77,2.47c-3.66,1.79-6.25,3-7.79,3.53S118.23,154.05,118.23,154.71Zm-5.76-26.42c.69-.51,1.35-1,2-1.51a3.8,3.8,0,0,1,2.42-.74c.44,0,1,.49,1.61,1.46a4.66,4.66,0,0,1,1,2.16,12.22,12.22,0,0,1-.27,1.75c-.18.92-.48,2.16-.88,3.73q-1.26,5.31-1.42,6.66c-.11.89-.35,2.29-.72,4.19a19.05,19.05,0,0,0-.43,1.86,1,1,0,0,0,.19.71.63.63,0,0,0,.52.22q10.9-5.47,11.29-5.69a8.57,8.57,0,0,0,.94-.31,7.91,7.91,0,0,0,.93-.41l.82-1q3.18-2,6.58-4.33a13.52,13.52,0,0,0,3.18-3.23,5.72,5.72,0,0,0,1-3.18q0-2-2.35-4a25.7,25.7,0,0,0-7.08-3.78,50.3,50.3,0,0,0-7.29-2.33,27.68,27.68,0,0,0-6-.74,9.33,9.33,0,0,0-5.29,1.23,4.16,4.16,0,0,0-1.78,3.65,11.1,11.1,0,0,0,.27,2.82C111.88,128.08,112.14,128.37,112.47,128.29Z" transform="translate(-0.49)"/><path class="cls-7" d="M160.4,108a31,31,0,0,1,4.9-1,50.47,50.47,0,0,1,5.9-.32,11.71,11.71,0,0,1,1.78.19,12.16,12.16,0,0,0,1.89.19,12.43,12.43,0,0,1,1.59.33c.41.11.95.24,1.65.38l1.53-.44a2.76,2.76,0,0,1,1.07.41c.39.24.85.51,1.4.8.29-.18.72-.4,1.26-.66a1.68,1.68,0,0,1,1.35.63,3.63,3.63,0,0,1,.68,1.78V112a13.82,13.82,0,0,1-.11,1.78,6.46,6.46,0,0,0,.06,1.38,13.93,13.93,0,0,1,.11,1.42,1.18,1.18,0,0,1-.28.88,1,1,0,0,1-.71.27,24.43,24.43,0,0,1-4.11-.35,26.16,26.16,0,0,1-4.06-1.07c-1.17.22-2.19.38-3.07.49a5.2,5.2,0,0,0-1.54.33c-.33.15-.49.33-.49.55a6,6,0,0,0,.6.82,5.08,5.08,0,0,0,.94.82,3.89,3.89,0,0,1,.87,1.18,16.92,16.92,0,0,1,1,2.44,6.19,6.19,0,0,1,.31,1.15,7.9,7.9,0,0,1,.08,1.05,24.91,24.91,0,0,1-.22,2.87,26.42,26.42,0,0,1-.49,2.83c-.33,1.42-.59,2.6-.77,3.54s-.33,1.63-.44,2.11a11.79,11.79,0,0,0-.17,1.31c0,.52-.07,1.1-.11,1.76a9.07,9.07,0,0,1-.43,2.05c-.26.83-.52,1.77-.77,2.83a9.61,9.61,0,0,1-.17,1.64c-.11.62-.25,1.34-.43,2.14a11.19,11.19,0,0,1-.53,1.62c-.23.6-.46,1.31-.68,2.11.07.55.13,1.12.16,1.7-.14,1-.29,2.08-.44,3.18-.21,1.57-.43,3.16-.65,4.77s-.42,3.16-.61,4.66c-.22.44-.45.94-.71,1.48a7.94,7.94,0,0,0,.14,1.18,8,8,0,0,1,.13,1.29,11,11,0,0,1-.21,1.78,10.35,10.35,0,0,0-.22,1.73c0,.7,0,1.77-.06,3.24s-.05,2.56-.05,3.29c.18.62.34,1.22.49,1.81a7.19,7.19,0,0,1-.36,1.23,1.86,1.86,0,0,1-.52.74,20.2,20.2,0,0,1-1.81,1q-.54.54-.9.87a1,1,0,0,1-.63.33,3.2,3.2,0,0,1-1.7-.33,1,1,0,0,1-.5-.87,35.2,35.2,0,0,1,.39-3.51,4,4,0,0,1-.25-.66c-.09-.29-.23-.66-.41-1.1q-.27-4.28-.71-8.77c.11-2.16.16-4.33.16-6.53,0-1,.05-2.31.14-3.86s.26-3.36.52-5.4.44-3.84.55-5.38.16-2.79.16-3.78a13.15,13.15,0,0,1,.14-1.67c.09-.68.19-1.51.3-2.5q.16-1.26.33-2.28a11.33,11.33,0,0,0,.16-1.83,7.55,7.55,0,0,0-.05-.93c0-.33-.07-.63-.11-.88.36-.92.64-1.66.82-2.22a4.53,4.53,0,0,0,.28-1.13c-.15-.47-.31-.95-.5-1.42a15.61,15.61,0,0,0,.72-2.77c.25-1.34.53-3.08.82-5.24v-1.59c0-.62,0-1.37,0-2.25l-.33-1a4.32,4.32,0,0,0-.79-.28,9.48,9.48,0,0,0-1.45-.27l-.72.49-1.45.33-1.56.38q-5.72,1.59-11.3,3.13a.85.85,0,0,1-.71-.36,1.52,1.52,0,0,1-.28-1,4.59,4.59,0,0,1,.28-1.15,20.15,20.15,0,0,1,.88-2.14q.1-1.92.27-3.18a11.68,11.68,0,0,1,.38-1.92,5.07,5.07,0,0,1,1.35-2,6.41,6.41,0,0,1,2.16-1.26,26,26,0,0,1,4.72-1.09A16.85,16.85,0,0,1,160.4,108Z" transform="translate(-0.49)"/><path class="cls-7" d="M187.76,173.32a44.23,44.23,0,0,1,.25-5.18,22.93,22.93,0,0,1,.57-3.32q-.11-.93-.27-1.92,0-1.16.27-3.84c.19-1.79.46-4.13.83-7s.61-4.93.85-6.44a23.46,23.46,0,0,1,.52-2.77c-.08-.62-.16-1.3-.25-2a19.91,19.91,0,0,0-.47-2.41l-1.2-.88-.28-.66c.08-1,.14-2.06.19-3.1a28.67,28.67,0,0,1,.36-3.15,16.51,16.51,0,0,1,.52-3.46c.28-1,.56-1.84.85-2.57a5.77,5.77,0,0,0,.36-.77,6.72,6.72,0,0,1,.52-1l1-4c.33-1.32.67-2.6,1-3.84a7.46,7.46,0,0,1,2.36-3,8.15,8.15,0,0,1,3.73-1.48,22.89,22.89,0,0,1,2.63-1.23,5.4,5.4,0,0,1,1.75-.41,1.42,1.42,0,0,1,1.21.6,2.87,2.87,0,0,1,.44,1.7c0,.3-.15,1.31-.44,3.05s-.75,4.14-1.37,7.21c-.11,1-.3,2.24-.55,3.64s-.6,3.08-1,5q-.82,3.24-1.62,7.1t-1.45,8.53c-.19,1.32-.39,2.61-.61,3.89s-.42,2.58-.6,3.9c-.22,1.5-.41,2.91-.58,4.25a30.39,30.39,0,0,0-.24,3.59,8.53,8.53,0,0,0,.08,1.15,6.39,6.39,0,0,1,.08,1,5,5,0,0,1,0,1.59c-.1.66-.2,1.45-.31,2.36s-.27,1.67-.38,2.38a12,12,0,0,0-.17,1.62c0,1.87.05,3.37.14,4.53a13.27,13.27,0,0,0,.3,2.27c.26,1,.52,2.05.77,3.18,0,.63-.82,1.55-2.47,2.77s-2.83,1.84-3.56,1.84a1.73,1.73,0,0,1-1.18-.47,5.76,5.76,0,0,1-1.07-1.4,12.48,12.48,0,0,1-.6-1.59,4.33,4.33,0,0,1-.22-1.31,3.83,3.83,0,0,1,.22-1,4.42,4.42,0,0,0,.22-1,15,15,0,0,0-1-2.74c-.07.37-.11.3-.11-.22Z" transform="translate(-0.49)"/><path class="cls-7" d="M252,169.15l2.09,5a17.22,17.22,0,0,1-1.46,1.18c-.56.42-1.23.87-2,1.35-.77.25-1.69.62-2.77,1.09l-3.7,1.65c-1.06.66-1.93,1.15-2.6,1.48a4.07,4.07,0,0,1-1.4.49,10.32,10.32,0,0,0-2.61.61q-1.89.6-5,1.81c-1.09.4-2.26.81-3.48,1.23s-2.5.79-3.81,1.12l-3.4-.71-2.08.93-2.12,0c-.71,0-1.39-.07-2-.14a6.42,6.42,0,0,1-2.39-.44,1.19,1.19,0,0,1-.79-1.1l.33-2.08-.33-.38a4.34,4.34,0,0,1-2.5-.5c-.42-.33-.63-1.09-.63-2.3,0-.55,0-1.46.08-2.74s.14-2.95.25-5a4.12,4.12,0,0,1,.36-1.16,4,4,0,0,0,.35-1.26,3.49,3.49,0,0,1-.33-.87,4.55,4.55,0,0,1-.05-.61c.07-1.42.23-3.18.47-5.26s.53-4.55.9-7.4a53.23,53.23,0,0,0,1.1-5.82c-.08-1.6-.15-3.25-.22-4.93q2-9.1,4.17-18.32a9.37,9.37,0,0,1,1.23-3.12,17.33,17.33,0,0,1,2.17-2.85,3.53,3.53,0,0,0,.71-.61c.18-.33.42-.74.71-1.23s.64-1.05,1-1.67c.22-.15.58-.37,1.07-.66s1.16-.7,2-1.21c.37-.29.79-.64,1.26-1s1-.88,1.65-1.43a37.59,37.59,0,0,0,3.87-2.66,8.78,8.78,0,0,1,4.46-1.72l2.53-.14,2.41-.19a15.07,15.07,0,0,1,1.92-.28c.36-.07.68-.14,1-.22a3,3,0,0,1,.74-.11,6.12,6.12,0,0,1,.9.09l1.57.24c.51,0,.95.06,1.31.06a8.45,8.45,0,0,0,1-.06,6.46,6.46,0,0,1,3.24,1.92,4.62,4.62,0,0,1,1,3,15.81,15.81,0,0,1-.74,5.62,2.46,2.46,0,0,1-2.33,1.84,4.58,4.58,0,0,1-2.74-1.24q-1.53-1.23-8.28-1.23l-5.54,1.1a1.87,1.87,0,0,1-.63.65,3.89,3.89,0,0,1-.63.33l-1.92-.71a5.06,5.06,0,0,0-2,1.81,24,24,0,0,0-2.31,4.06,4.84,4.84,0,0,0-.41,1.37,12,12,0,0,0-.14,1.92q-1,3.94-2,7.62-.93,3.94-1.51,6c-.38,1.35-.61,2.17-.68,2.46s-.2.72-.28,1.05a4.75,4.75,0,0,0-.11,1,1.83,1.83,0,0,0,.28,1.1.92.92,0,0,0,.82.38c.33,0,1.12-.6,2.39-1.8a7.75,7.75,0,0,1,2.82-2c.77-.22,1.54-.46,2.33-.72a24.1,24.1,0,0,0,2.44-.93,21.13,21.13,0,0,1,2.6-.44q2.11-.27,5.9-.66l1.54.44,2.9-.55,1.54.72a6.61,6.61,0,0,1,1,1.34,13.25,13.25,0,0,1,.85,1.73,13.6,13.6,0,0,1-.71,5,2.32,2.32,0,0,1-2.14,1.7l-3-1.21c-2.48.26-4.94.5-7.37.74s-4.91.47-7.43.69a15.7,15.7,0,0,0-7.08,3,7.74,7.74,0,0,0-2.74,5.49,16.21,16.21,0,0,1-.38,2.19c-.22,1-.48,2.21-.77,3.67l.38,1.65c-.32,1.57-.58,3-.76,4.44a27.73,27.73,0,0,0-.28,3.73,1.49,1.49,0,0,0,.17.8c.11.16.23.21.38.13l4.22-.33a16.82,16.82,0,0,1,2.25-.05l2.91.22,3.45-.28a16.66,16.66,0,0,0,2.39-.87,8.56,8.56,0,0,1,3.32-.77,15.88,15.88,0,0,0,3.2-.33,20.2,20.2,0,0,0,3.1-.88c1-.36,2-.74,2.94-1.12s1.94-.76,2.93-1.13a10.81,10.81,0,0,0,1.45-.6C250.47,170,251.17,169.62,252,169.15Z" transform="translate(-0.49)"/><path class="cls-7" d="M290.52,169.09l2.2,5a8.5,8.5,0,0,1-3.38,1q-2.59.44-6.77.76a62.91,62.91,0,0,1-9.62,7.83,39,39,0,0,1-9.52,4.6c-.73.22-1.57.46-2.52.71a6.22,6.22,0,0,1-1.92-.35,17.24,17.24,0,0,1-2.3-1,10.24,10.24,0,0,1-2-1.59,2.34,2.34,0,0,1-.71-1.59,4.44,4.44,0,0,1,1.59-3.18,16.44,16.44,0,0,1,4.66-2.91q6.14-2.85,12.12-5.75a1.88,1.88,0,0,1,1.26.35,1.21,1.21,0,0,1,.38.91c0,1-.7,1.82-2.11,2.49s-2.11,1.16-2.11,1.46q.39.54.66.54.71,0,3.15-2.13c1.63-1.43,2.42-2.33,2.39-2.69l-.28-1.26.11-.22a13,13,0,0,0,2.11-2.25,3.1,3.1,0,0,0,.69-1.59,7.93,7.93,0,0,0-1.37-3.67,43.66,43.66,0,0,0-4.11-5.54,54.87,54.87,0,0,0-4.17-4.53c-1.39-1.33-2.73-2.51-4-3.53a11.63,11.63,0,0,1-1.32-1.29,8.53,8.53,0,0,1-.88-1.18c-.4-.73-.72-1.34-1-1.81a2.88,2.88,0,0,0-.63-.93c-.18-.22-.43-.49-.74-.8s-.68-.67-1.12-1.07a8,8,0,0,1-1.78-3.34,18.74,18.74,0,0,1-.64-5.32,14.28,14.28,0,0,1,.58-4,11.45,11.45,0,0,1,1.67-3.48c.11-.22.22-.48.33-.77s.24-.62.39-1a21.59,21.59,0,0,1,4.27-5.57,57.8,57.8,0,0,1,7.9-6.33c.44-.22,1-.51,1.59-.88a20.49,20.49,0,0,0,2.08-1.42,8.91,8.91,0,0,1,1.46-1A12.14,12.14,0,0,1,279,110c1-.4,2.1-.84,3.34-1.32a40,40,0,0,1,4.56-2.08,8.78,8.78,0,0,1,2.74-.66,3.32,3.32,0,0,1,2.71,1.1,4.9,4.9,0,0,1,.91,3.18,16,16,0,0,1-.36,3.75,3.67,3.67,0,0,1-1,2q-6.46,5.16-10.42,7.76c-2.63,1.74-4.48,2.6-5.54,2.6a1.62,1.62,0,0,1-1.2-.43,1.79,1.79,0,0,1-.44-1.32c0-1,.82-2.07,2.47-3.26s2.44-2.1,2.41-2.72l-.5-.33a1.57,1.57,0,0,0-.63.17,4.62,4.62,0,0,0-.74.44,46,46,0,0,0-7.26,7q-2.44,3.09-2.44,5.4a11.38,11.38,0,0,0,.63,3.67,18.58,18.58,0,0,0,1.84,3.84,42,42,0,0,0,2.54,3.48q1.68,2.11,4.25,5.08,3.57,4.11,5.49,6.36a23.74,23.74,0,0,0,2.14,2.36,21,21,0,0,1,1.86,2.85,10.12,10.12,0,0,1,1,2.74,14.13,14.13,0,0,1,.39,2.58c.07,1,.11,2.26.11,3.73,0,.85.12,1.35.38,1.48a3.19,3.19,0,0,0,1.26.19.89.89,0,0,0,.52-.14A2.57,2.57,0,0,0,290.52,169.09Z" transform="translate(-0.49)"/><path class="cls-7" d="M158.6,221.65l.8-.93c.31-.37.7-.81,1.18-1.32a15.23,15.23,0,0,0,.51-1.9c.15-.76.28-1.65.39-2.68s.27-1.95.43-2.72.3-1.41.42-1.88l1.92-6c.46-1.42.72-2.26.8-2.51a40.67,40.67,0,0,1,1.9-4.46,29.57,29.57,0,0,1,2-3.41l.52-.59c.18-.21.39-.43.63-.67.68-.31,1.31-.62,1.89-.91a7.42,7.42,0,0,1,1-.35,3.5,3.5,0,0,1,1-.14,1.27,1.27,0,0,1,1.18.73,4.46,4.46,0,0,1,.41,2.18,9.59,9.59,0,0,1-.24,2q-.26,1.11-.69,2.43c-.44,1.24-.78,2.23-1,3s-.39,1.2-.44,1.39a6.47,6.47,0,0,1-.52,1.45c-.28.59-.64,1.3-1.1,2.14-.57,1.08-1,1.91-1.33,2.49s-.51.94-.56,1.05l-.4.39-.42.43v.63a1.86,1.86,0,0,1-.28.47c-.31.6-.72,1.35-1.25,2.24s-1.16,1.92-1.93,3.07a11.35,11.35,0,0,0-1,1.59,3,3,0,0,0-.32,1.18v2.42q.13.7.3,1.41c.11.47.22.92.33,1.36a2.67,2.67,0,0,0,.52,1.33,1.12,1.12,0,0,0,.87.45,3,3,0,0,0,1.83-.54,3.17,3.17,0,0,0,1.08-1.63,3.42,3.42,0,0,1-1.14-.7,1.17,1.17,0,0,1-.39-.83,4.84,4.84,0,0,0,.23-.61c.06-.22.13-.44.2-.68a1.86,1.86,0,0,1,.1-.39,1.82,1.82,0,0,0,.1-.49,19.15,19.15,0,0,1,2.3-3.47,2.81,2.81,0,0,1,1.86-1.16,4,4,0,0,1,.63.07,5.58,5.58,0,0,0,.66.06,2.33,2.33,0,0,0,.52-.09,2,2,0,0,1,.52-.1.71.71,0,0,1,.66.32,1.64,1.64,0,0,1,.19.86,5.67,5.67,0,0,1-.68,2.55,8.09,8.09,0,0,0-.69,1.56.55.55,0,0,0,.22.36,2.14,2.14,0,0,0,.35-.16,2.79,2.79,0,0,0,.34-.28,5.55,5.55,0,0,0,.34.82c.16.32.33.67.51,1.07a1.77,1.77,0,0,1,.19.35.74.74,0,0,1,.06.28,16.31,16.31,0,0,1-2,1.81,3.34,3.34,0,0,1-1.48.69h-.47l-.66,0c-.25.32-.56.67-.92,1.07s-.75.88-1.19,1.43l-.69.51q-.41.31-.93.78a5.6,5.6,0,0,1-1.57,1.16,3.62,3.62,0,0,1-1.58.37,2.74,2.74,0,0,1-.7-.09,3.36,3.36,0,0,1-.78-.37,4,4,0,0,1-.7-.46c-.25-.19-.52-.41-.81-.67a20.48,20.48,0,0,1-.79-3.1,15.35,15.35,0,0,1-.25-2.71,1.82,1.82,0,0,0,0-.37.71.71,0,0,0-.13-.26l-.24-.08-.19.08-.28.27c-.14-.4-.31-.81-.49-1.23S158.82,222.09,158.6,221.65Zm12.7-22.29a.53.53,0,0,0,0-.23.43.43,0,0,0-.15-.18c-.11,0-.24.1-.39.37a5.31,5.31,0,0,0-.41,1.14,5.32,5.32,0,0,1-.49,1.29c-.26.49-.59,1.07-1,1.75a20.94,20.94,0,0,0-1,2c-.33.72-.66,1.5-1,2.35a19.5,19.5,0,0,0-.93,2.6,7.39,7.39,0,0,0-.3,1.81l.05.25a3.18,3.18,0,0,0,.73-1.07c.34-.64.78-1.57,1.33-2.77s.89-1.89,1.14-2.5.39-1,.45-1.2c.14-.5.32-1.07.52-1.73s.43-1.39.68-2.19c.19-.31.34-.58.47-.8a2,2,0,0,0,.25-.44A1.24,1.24,0,0,0,171.3,199.36Z" transform="translate(-0.49)"/><path class="cls-7" d="M175,221.65a14.55,14.55,0,0,1,1.93-1.59,18.81,18.81,0,0,0,1.94-1.53c.27-.33.63-.73,1.07-1.2l1.57-1.66a5.31,5.31,0,0,1,1.07-.76,2.14,2.14,0,0,1,1-.28,1.48,1.48,0,0,1,1,.33,1.32,1.32,0,0,1,.37,1,12.14,12.14,0,0,1-.82,3.46,12.16,12.16,0,0,0-.82,3.62.49.49,0,0,0,.12.38.44.44,0,0,0,.29.11l.14,0c.34-.22.75-.49,1.22-.83s1-.76,1.57-1.25,1.07-1,1.77-1.73,1.53-1.53,2.48-2.47a15.58,15.58,0,0,0,1.25-1.12c.47-.46,1-1,1.58-1.65a2.3,2.3,0,0,1,1-.76,3.87,3.87,0,0,1,1.57-.28,1.56,1.56,0,0,1,.95.24.81.81,0,0,1,.31.7,1.55,1.55,0,0,1,0,.37c0,.11-.05.23-.07.34-.12.55-.32,1.22-.57,2s-.57,1.74-.93,2.81c-.31.68-.64,1.49-1,2.43s-.7,2-1.08,3.11l.19.25a8.78,8.78,0,0,0,1.71-1.3c.76-.69,1.71-1.61,2.86-2.76l1.09,2.52-.53.54a6,6,0,0,1-.84.67,42.3,42.3,0,0,0-5,4.13,21.34,21.34,0,0,0-3.33,4q-1.84,3-3.06,4.91c-.81,1.26-1.4,2.15-1.77,2.66a17.2,17.2,0,0,1-3.59,3.7,5.75,5.75,0,0,1-3.31,1.21,1.32,1.32,0,0,1-.88-.25,1,1,0,0,1-.27-.77,2,2,0,0,1,.14-.68,2.91,2.91,0,0,1,.49-.88,17.27,17.27,0,0,0,1-1.54l.81-.71a1.76,1.76,0,0,0,.11-.49,3.1,3.1,0,0,1,.32-.33l.47-.44a8.8,8.8,0,0,1,1-1.63c.56-.76,1.34-1.73,2.34-2.92.75-.88,1.44-1.66,2.06-2.35l1.59-1.74c.07-.14.15-.32.23-.52a4.76,4.76,0,0,0,.21-.6c.24-.48.5-1.05.78-1.73s.63-1.47,1-2.38a13.46,13.46,0,0,0,.47-1.83c.12-.68.24-1.43.35-2.23a.73.73,0,0,1-.07-.29,2.52,2.52,0,0,0-.12-.51,5.81,5.81,0,0,0-1.08.74c-.4.33-.82.72-1.28,1.15a12.16,12.16,0,0,1-1.84,2,8.36,8.36,0,0,1-1.83,1.19,3.93,3.93,0,0,1-3.73,2.3,2,2,0,0,1-1.37-.42,1.7,1.7,0,0,1-.47-1.31,4,4,0,0,1,0-.41c0-.16.07-.35.13-.57s-.17-.44-.28-.77c.07-.31.14-.66.19-1a4.8,4.8,0,0,0-.12-1.24c-.08-.27-.21-.41-.4-.41l-.11.06c-.2.14-.48.36-.85.65l-1.31,1.07c-.09-.23-.21-.52-.35-.85s-.27-.71-.42-1.15a1.38,1.38,0,0,0-.14-.3A.82.82,0,0,0,175,221.65Z" transform="translate(-0.49)"/><path class="cls-7" d="M240.53,224.17c-.55.42-1.23.91-2,1.46s-1.77,1.15-2.87,1.81-1.86,1.05-2.62,1.46a15.72,15.72,0,0,1-1.9.92,10.1,10.1,0,0,1-2.39.76,14.62,14.62,0,0,1-2.57.23,4,4,0,0,1-.92-.12l-1.09-.29-1.2-.33a5.23,5.23,0,0,0-.82-.17l-.33-.32-.8-.11a2.73,2.73,0,0,1-1.25-.52,10.18,10.18,0,0,1-1.57-1.38,11,11,0,0,1-1.33-1.56,6.25,6.25,0,0,1-.73-1.34l-.74-2.36c-.26-.8-.45-1.45-.58-1.95a3.57,3.57,0,0,1-.16-1l.3-1.23c-.14-.42-.26-.77-.34-1a2.54,2.54,0,0,1-.12-.63c0-.15,0-.6.13-1.35s.22-1.79.39-3.12c.12-.26.26-.57.41-.93s.28-.78.41-1.24l-.08-.6a1.72,1.72,0,0,1,.09-.51c.07-.19.15-.41.26-.64.42-.9.84-1.8,1.26-2.72s.85-1.8,1.27-2.66a13.38,13.38,0,0,1,1.41-2c.57-.69,1.24-1.41,2-2.16.16-.19.36-.42.6-.72s.52-.61.85-1a9.19,9.19,0,0,0,1.14-.83c.44-.38,1-.86,1.6-1.44q.27-.1.66-.3l.93-.47a1.64,1.64,0,0,0,.34-.27c.14-.13.3-.27.48-.41a8,8,0,0,1,2.2-.83,12,12,0,0,1,2.46-.54,10.9,10.9,0,0,1,2.14.17,3.48,3.48,0,0,1,1.4.57l.88.16a2.33,2.33,0,0,1,1.62,1.67,12.77,12.77,0,0,1,.52,4.12q0,1.26,0,2a9.7,9.7,0,0,1-.08,1c-.11.55-.23,1.24-.37,2.07s-.32,1.8-.53,2.89a7.12,7.12,0,0,1-.37,1.44c-.23.67-.53,1.5-.89,2.48s-.72,1.9-1,2.46-.5.86-.68.91l-2.36.61a2.36,2.36,0,0,1-.84-.1.32.32,0,0,1-.25-.31,3.27,3.27,0,0,1,.09-.61,2.58,2.58,0,0,0,.1-.57c-.05-.7-.11-1.4-.16-2.11a9.38,9.38,0,0,1,.22-1.51c.14-.75.36-1.71.65-2.88s.59-2.29.82-3a5.18,5.18,0,0,1,.58-1.38,6,6,0,0,0,1.15-1.42,2.5,2.5,0,0,0,.37-1.22,2.39,2.39,0,0,0-.37-1.34,2.26,2.26,0,0,0-1.11-.88l-1.44-.31c-.48-.1-1-.23-1.44-.37q-.57.21-1,.33l-.79.19a7.34,7.34,0,0,0-3.52,1.7,15.86,15.86,0,0,0-3.22,3.86,25,25,0,0,0-2,4.3,20.34,20.34,0,0,0-1,4.31c-.08.44-.17,1-.28,1.63s-.26,1.42-.46,2.29l.44,1.51-.28,2.5a1.49,1.49,0,0,0,.25.56c.16.28.42.7.77,1.25a6.51,6.51,0,0,1,.55,1.09,7.61,7.61,0,0,1,.38,1.43,1.54,1.54,0,0,0,.2.41,1.5,1.5,0,0,0,.35.36c.27.23.54.45.79.63a8.59,8.59,0,0,0,2.51,1.9,6.43,6.43,0,0,0,2.84.65c.09,0,.43-.05,1-.14s1.41-.24,2.45-.44a4,4,0,0,1,.73-.38c.3-.13.66-.27,1.08-.41a3.39,3.39,0,0,1,1.1-.78,2.51,2.51,0,0,1,1-.24l.34-.46a5.51,5.51,0,0,1,.54-.61,6.09,6.09,0,0,0,1.51-.86,10.18,10.18,0,0,0,1.31-1.25A25.58,25.58,0,0,1,240.53,224.17Z" transform="translate(-0.49)"/><path class="cls-7" d="M239.41,221.65q.43-.57.87-1.2a25.08,25.08,0,0,0,3.28-3.17,12,12,0,0,0,1.85-2.84l-.27-1.32a5.17,5.17,0,0,1,1.77-1.61,4.6,4.6,0,0,1,2.28-.94,2.37,2.37,0,0,1,1.58.55c.43.37.85.75,1.25,1.15a4.18,4.18,0,0,1,.44.31,4.84,4.84,0,0,1,1.64,2.27,10,10,0,0,1,.55,3.54,9,9,0,0,1-.85,3.14,8.92,8.92,0,0,0-.85,3.08.26.26,0,0,0,.1.22.35.35,0,0,0,.26.08,1.67,1.67,0,0,0,.85-.31,7.89,7.89,0,0,0,1.07-.86,14,14,0,0,1,1.75-1.58,4.14,4.14,0,0,0,.74-.51c.15.37.32.76.52,1.18s.4.87.58,1.34c-.17.15-.35.32-.56.53s-.47.42-.76.68c-.62.46-1.43,1-2.42,1.66s-2.19,1.39-3.58,2.23a5.21,5.21,0,0,1-1.26.58,3.43,3.43,0,0,1-1.73-.34,1.21,1.21,0,0,1-.58-1.11,2.18,2.18,0,0,1,.13-.7,5.74,5.74,0,0,1,.34-.87c.11-.23.23-.48.36-.72a7.19,7.19,0,0,0,.32-.76,25.41,25.41,0,0,0,.92-3.2,13,13,0,0,0,.32-2.66,4.51,4.51,0,0,0-.45-2.23,1.73,1.73,0,0,0-1.36-.87,8.57,8.57,0,0,0-1.32.93,11.14,11.14,0,0,0-1.45,1.51,20.24,20.24,0,0,1-1.43,1.62,4.5,4.5,0,0,1-1,.84,4.61,4.61,0,0,1-.79.94,10.54,10.54,0,0,1-1.46,1.12l-.16.33a2,2,0,0,1-.36.49c-.14-.42-.31-.83-.49-1.24S239.63,222.09,239.41,221.65Z" transform="translate(-0.49)"/><path class="cls-7" d="M257.69,221.65a14.76,14.76,0,0,1,1.94-1.59,18.47,18.47,0,0,0,1.93-1.53c.28-.33.63-.73,1.07-1.2l1.57-1.66a5.6,5.6,0,0,1,1.07-.76,2.18,2.18,0,0,1,1.05-.28,1.5,1.5,0,0,1,1,.33,1.36,1.36,0,0,1,.37,1,12.25,12.25,0,0,1-.83,3.46,12.16,12.16,0,0,0-.82,3.62.49.49,0,0,0,.12.38.46.46,0,0,0,.29.11l.14,0c.35-.22.75-.49,1.22-.83s1-.76,1.58-1.25,1.06-1,1.76-1.73,1.53-1.53,2.49-2.47a15.64,15.64,0,0,0,1.24-1.12c.47-.46,1-1,1.58-1.65a2.36,2.36,0,0,1,1-.76,3.92,3.92,0,0,1,1.58-.28,1.53,1.53,0,0,1,.94.24.81.81,0,0,1,.32.7,2.33,2.33,0,0,1,0,.37c0,.11-.05.23-.07.34-.13.55-.32,1.22-.58,2s-.56,1.74-.93,2.81c-.31.68-.63,1.49-1,2.43s-.7,2-1.09,3.11l.2.25a8.5,8.5,0,0,0,1.7-1.3c.76-.69,1.71-1.61,2.86-2.76l1.1,2.52-.54.54a5.84,5.84,0,0,1-.83.67,42.45,42.45,0,0,0-5,4.13,21.34,21.34,0,0,0-3.33,4q-1.83,3-3,4.91c-.82,1.26-1.41,2.15-1.77,2.66a17.43,17.43,0,0,1-3.59,3.7,5.78,5.78,0,0,1-3.32,1.21,1.29,1.29,0,0,1-.87-.25,1,1,0,0,1-.28-.77,2.28,2.28,0,0,1,.14-.68,2.91,2.91,0,0,1,.49-.88,15.24,15.24,0,0,0,1-1.54l.82-.71a2.24,2.24,0,0,0,.11-.49,2.85,2.85,0,0,1,.31-.33c.14-.13.29-.28.48-.44a8.58,8.58,0,0,1,1-1.63c.56-.76,1.34-1.73,2.35-2.92.75-.88,1.43-1.66,2.05-2.35l1.59-1.74a4.33,4.33,0,0,0,.24-.52,4.69,4.69,0,0,0,.2-.6c.24-.48.5-1.05.79-1.73s.62-1.47,1-2.38a12.13,12.13,0,0,0,.47-1.83c.13-.68.25-1.43.36-2.23a.73.73,0,0,1-.07-.29,2.09,2.09,0,0,0-.13-.51A5.81,5.81,0,0,0,272,222c-.39.33-.82.72-1.27,1.15a13.11,13.11,0,0,1-1.84,2,8.41,8.41,0,0,1-1.84,1.19,3.93,3.93,0,0,1-3.73,2.3,2,2,0,0,1-1.37-.42,1.7,1.7,0,0,1-.46-1.31,2.33,2.33,0,0,1,0-.41c0-.16.07-.35.12-.57s-.16-.44-.27-.77c.07-.31.13-.66.19-1a4.32,4.32,0,0,0-.13-1.24c-.08-.27-.21-.41-.39-.41l-.11.06c-.2.14-.49.36-.85.65l-1.32,1.07c-.09-.23-.2-.52-.34-.85s-.28-.71-.43-1.15a1.36,1.36,0,0,0-.13-.3A.85.85,0,0,0,257.69,221.65Z" transform="translate(-0.49)"/><path class="cls-7" d="M281.38,221.65l.17-.19a2.16,2.16,0,0,1,.48-.82,4.59,4.59,0,0,1,1.05-.88c.61-.38,1.08-.69,1.42-.93a2.87,2.87,0,0,0,.61-.52,2.29,2.29,0,0,0,.33-.47c.2-.15.45-.35.74-.6s.62-.57,1-.94a1.9,1.9,0,0,0,.41-.43c.15-.21.29-.43.44-.69a8.29,8.29,0,0,0,.81-.63c.3-.26.65-.58,1.05-1l1.55-1.63c.58-.59,1.22-1.21,1.94-1.85a4.37,4.37,0,0,1,.67-.26,2.22,2.22,0,0,1,.61-.1,2.58,2.58,0,0,1,1.85.59,2.21,2.21,0,0,1,.62,1.69,7.42,7.42,0,0,1-.09.91c-.07.42-.14,1-.21,1.58-.26,1.85-.44,3-.55,3.38s-.49,1.66-1.15,3.78a11.74,11.74,0,0,0-.45,1.29c-.16.51-.34,1.13-.56,1.86,0,.08.12.15.27.22a1.52,1.52,0,0,0,.69-.37c.32-.24.76-.61,1.31-1.11s1.14-1,1.51-1.34a7,7,0,0,1,.69-.55c.21.5.42.95.6,1.36s.34.8.46,1.16a4.56,4.56,0,0,0-.64.5,4.37,4.37,0,0,0-.53.6l-1.33.88-1.66,1.07c-.28.27-.65.61-1.11,1l-1.58,1.33-.52.11a4.43,4.43,0,0,1-.73.79,2.64,2.64,0,0,1-.61.39l-.88.31-.93.32a.69.69,0,0,1-.44-.36,1.38,1.38,0,0,1-.11-.71,6.84,6.84,0,0,1-.66-1.7,8.79,8.79,0,0,1-.25-2.14,4,4,0,0,1,0-.47c0-.16,0-.31.06-.44a5.41,5.41,0,0,1-.2-.85,1.69,1.69,0,0,1,.63-1.35,2.14,2.14,0,0,1,1.43-.54.61.61,0,0,1,.59.43c.12.28.24.42.37.42s.26-.25.4-.75a17.92,17.92,0,0,0,.39-2.21c.13-.84.21-1.57.25-2.19s.06-1.1.06-1.43a.76.76,0,0,0-.16-.53.61.61,0,0,0-.5-.18,8.15,8.15,0,0,0-2.3,1.64q-1.95,1.65-5.43,4.91a5,5,0,0,1-.32.47c-.14.18-.3.41-.48.68a6.72,6.72,0,0,0-.38-1C281.91,222.76,281.68,222.25,281.38,221.65Z" transform="translate(-0.49)"/><path class="cls-7" d="M298.55,221.65l.11-.22.42-.55.62-.76a31.64,31.64,0,0,0,3.8-4.32,55.65,55.65,0,0,0,3.66-5.77,8.59,8.59,0,0,0,.49-.8c.18-.33.39-.74.6-1.23a.33.33,0,0,0-.08-.25.38.38,0,0,0-.27-.08,2.66,2.66,0,0,0-.54.09,2.13,2.13,0,0,1-.56.1h-3.43l-.72,0c-.34,0-.58,0-.73,0s-.35-.17-.51-.24l-.45-.2a1.37,1.37,0,0,1-.51-.29.57.57,0,0,1-.17-.43,7.47,7.47,0,0,1,.37-2.68,1.22,1.22,0,0,1,1.14-.94c.51,0,1,0,1.43.07s.85.11,1.2.18l.77-.16c.49,0,.91,0,1.26,0a4.57,4.57,0,0,1,.8.14c.23-.06.47-.11.7-.15l.75-.15.9.27c.65-.07,1.33-1,2-2.69S313.15,198,314,198a1.26,1.26,0,0,1,1,.41,1.81,1.81,0,0,1,.35,1.2,5,5,0,0,1-.37,1.66,7.68,7.68,0,0,0-.43,1.55,2.29,2.29,0,0,0,.15.24,2.66,2.66,0,0,0,.29.28.72.72,0,0,1,.23.37,3,3,0,0,1,.06.65,16.22,16.22,0,0,1-.15,2.53c-.1.6-.26.9-.48.92l-1.85.39c0,.18-.09.4-.14.67s-.13.57-.22.92q-.46,1.37-1.05,3.48t-1.29,5c-.29,1.53-.51,2.78-.67,3.73a13.77,13.77,0,0,0-.23,1.92,1.24,1.24,0,0,0,.13.65.46.46,0,0,0,.41.22,4.68,4.68,0,0,0,1.2-.79c.68-.53,1.64-1.32,2.86-2.36l1.07,2.52a8.31,8.31,0,0,1-.77.72c-.32.27-.72.56-1.17.87-.19.21-.42.43-.69.68s-.58.53-.9.86-.66.73-1,1.1-.64.72-1,1.07a4.71,4.71,0,0,1-1.29,1,2.65,2.65,0,0,1-1.18.32,2.2,2.2,0,0,1-1.79-.71,3.33,3.33,0,0,1-.59-2.17c0-1.06,0-2,.1-2.76a8.85,8.85,0,0,1,.36-1.87,2.9,2.9,0,0,0,.17-.39,4,4,0,0,1,.08-.74c.05-.31.12-.67.19-1.09.11-.72.23-1.43.36-2.14l.63-1.4c0-.09-.07-.17-.22-.25l-.27.17a10.8,10.8,0,0,1-1.07,1.38,17.75,17.75,0,0,1-1.57,1.52c-.93.9-1.88,1.8-2.85,2.72-.06.09-.16.23-.3.41s-.31.41-.5.68l-.34-.83c-.13-.34-.28-.73-.42-1.17a2.09,2.09,0,0,0-.14-.3A.82.82,0,0,0,298.55,221.65Z" transform="translate(-0.49)"/><path class="cls-7" d="M314.62,220.45l2.49-1.65a4.83,4.83,0,0,0,.33-.37,5.57,5.57,0,0,0,.44-.67,1.83,1.83,0,0,1,.5-.6,3.29,3.29,0,0,1,.73-.44,8.29,8.29,0,0,1,.63-.69c.28-.27.62-.59,1-1a8.48,8.48,0,0,0,.77-.48,8.29,8.29,0,0,0,1-.84,29.19,29.19,0,0,1,4.37-3.53,6.3,6.3,0,0,1,3.17-1.18,1.57,1.57,0,0,1,1.05.3,1.07,1.07,0,0,1,.34.85,2.31,2.31,0,0,1-.2,1,1.86,1.86,0,0,1-.65.75c-.45.32-.95.69-1.48,1.09a11.11,11.11,0,0,1-1.07,1.22,12.08,12.08,0,0,1-1.48,1.28l-.46.63-.52.49a12.39,12.39,0,0,1-1,.82,6.21,6.21,0,0,1-1.19,1.57c-.61.64-1.43,1.4-2.45,2.3a8.43,8.43,0,0,0-.69.88c-.33.45-.76,1.06-1.29,1.81l.19.24a4.38,4.38,0,0,0,1.27-.65,13.87,13.87,0,0,0,1.45-1.24l1.52-1.38a7.4,7.4,0,0,1,.84-.7l.38-.22c.13-.07.27-.17.44-.28a11.56,11.56,0,0,1,2.36-2.23,3.76,3.76,0,0,1,2-.73,1,1,0,0,1,.87.46,2.8,2.8,0,0,1,.36,1.35c0,.92-.06,1.79-.06,2.63a2.57,2.57,0,0,0,.48,1.58,1.57,1.57,0,0,0,1.33.7.84.84,0,0,0,.48-.14,2.92,2.92,0,0,0,.48-.35l.37-.47.37-.44a2.15,2.15,0,0,0,.32-.19,2.41,2.41,0,0,0,.4-.33c.25.55.47,1,.64,1.44a8.85,8.85,0,0,1,.4,1.08c-.42.39-.84.78-1.25,1.2a14.35,14.35,0,0,1-1.3,1.16,7.16,7.16,0,0,1-1.59.95,4,4,0,0,1-1.54.31,3.61,3.61,0,0,1-2.74-1,4.93,4.93,0,0,1-1.12-3.07,2.24,2.24,0,0,0-.07-.51,1.48,1.48,0,0,0-.29-.53l-.3.28a5.15,5.15,0,0,0-.38.4l-.9.69-1.24,1q-1,1-1.62,1.62c-.44.42-.75.72-.93.91a11.82,11.82,0,0,1-1.28.93c-.48.31-1,.63-1.63,1q-.57.3-1,.48a1.69,1.69,0,0,1-.6.18,2.62,2.62,0,0,1-1.95-.65,2.75,2.75,0,0,1-.63-2,3.3,3.3,0,0,1,.32-1.41,4.59,4.59,0,0,1,.94-1.3,3.66,3.66,0,0,0,.06-.58.61.61,0,0,0-.07-.28c-.05-.1-.1-.22-.18-.35l-.37-.86-.45-1a2.49,2.49,0,0,0,.31-.42C314.27,221,314.43,220.76,314.62,220.45Z" transform="translate(-0.49)"/><path class="cls-7" d="M334.82,221.65a4.86,4.86,0,0,0,.5-.67,6.07,6.07,0,0,1,.65-.86l1.81-1.59a.3.3,0,0,0,.13-.22c0-.09,0-.22,0-.39a3.38,3.38,0,0,0-.08-.57,15.08,15.08,0,0,1,.24-2.11,7.45,7.45,0,0,1,.44-1.79l-.16-.52c.24-1.22.57-2.56,1-4s.92-3,1.47-4.73a11.18,11.18,0,0,0,.57-1.11l.69-1.53a23.71,23.71,0,0,1,1.23-3c.51-1,1.09-2.11,1.73-3.2a20.8,20.8,0,0,1,2.29-3.27,2.68,2.68,0,0,1,1.79-1.09,3,3,0,0,1,2.18.61,3.39,3.39,0,0,1,.59,2.32,9.4,9.4,0,0,1-.15,1.36,9.33,9.33,0,0,0-.15,1.38,4.35,4.35,0,0,1-.3,1.32,4.75,4.75,0,0,0-.3,1.56,1.5,1.5,0,0,1-.14.44l0,.38a8.4,8.4,0,0,1-.33.94c-.15.36-.34.8-.58,1.31s-.29,1-.49,1.59-.44,1.26-.71,2c-.11.18-.25.4-.43.67s-.36.56-.56.89a5.55,5.55,0,0,1-.27.82c-.13.31-.3.68-.52,1.1a5.31,5.31,0,0,1-.44.71q-.27.39-.66,1a7,7,0,0,0-.36.69c-.12.27-.27.58-.44.93s-.46.69-.79,1.15-.7,1-1.12,1.62c-.57,1-1.16,2-1.76,2.88a6.4,6.4,0,0,0,1.06,4,3.74,3.74,0,0,0,3.16,1.36,4.84,4.84,0,0,0,.83-.19c.45-.13,1.08-.33,1.89-.61a9.21,9.21,0,0,0,.85-.61c.33-.27.7-.58,1.12-.95l1.07,2.52c-.48.42-1,.85-1.43,1.29s-1,.87-1.45,1.29a6.5,6.5,0,0,1-1.73,1.08,4.34,4.34,0,0,1-1.72.37c-.3,0-.74,0-1.35-.09a12.59,12.59,0,0,0-1.37-.1,3.12,3.12,0,0,1-2.53-1.23,8,8,0,0,1-1.42-3.7,1.43,1.43,0,0,0-.15-.44,1.69,1.69,0,0,0-.34-.44l-.84.85c-.32.33-.7.7-1.16,1.12Zm13.08-21.52-.19-.11a14,14,0,0,0-2.32,2.8,5,5,0,0,0-.78,2.55,2.1,2.1,0,0,1-.18.64c-.12.3-.29.69-.53,1.16s-.6,1.19-.91,1.87c-.34,1-.61,1.85-.79,2.49a5.54,5.54,0,0,0-.28,1.38l.17.21c.16,0,.36-.18.6-.49a9.41,9.41,0,0,0,.82-1.37,10.86,10.86,0,0,1,.63-1.15c.28-.44.59-1,.94-1.56a19.07,19.07,0,0,0,1.4-3.1,19.77,19.77,0,0,0,1-3.18,6.65,6.65,0,0,1,.15-1.09C347.75,200.83,347.83,200.48,347.9,200.13Z" transform="translate(-0.49)"/></g></g></svg>